<?xml version="1.0" encoding="utf-8"?>
<!-- Generator: Adobe Illustrator 18.1.1, SVG Export Plug-In . SVG Version: 6.00 Build 0)  -->
<!DOCTYPE svg PUBLIC "-//W3C//DTD SVG 1.1//EN" "http://www.w3.org/Graphics/SVG/1.1/DTD/svg11.dtd">
<svg version="1.1" id="Layer_1" xmlns="http://www.w3.org/2000/svg" xmlns:xlink="http://www.w3.org/1999/xlink" x="0px" y="0px"
	 viewBox="0 0 448.465 233" enable-background="new 0 0 448.465 233" xml:space="preserve">
<g id="Layer_X">
	<g id="change1_1_">
		<path fill="#FF2E8D" d="M115.121,162.212c-0.957-0.554-2.18-0.225-2.732,0.732c-0.552,0.957-0.225,2.18,0.732,2.732l56.723,32.749
			c0.748-1.114,1.535-2.198,2.347-3.264L115.121,162.212z"/>
		<path fill="#FF2E8D" d="M135.467,193.051c-1.037-0.376-2.186,0.157-2.563,1.195s0.157,2.186,1.195,2.563l30.456,11.085
			c0.56-1.222,1.148-2.428,1.778-3.61L135.467,193.051z"/>
		<path fill="#FF2E8D" d="M119.392,98.697c-0.71-0.846-1.972-0.957-2.818-0.247c-0.846,0.71-0.957,1.972-0.247,2.818l68.294,81.389
			c1.057-0.817,2.132-1.611,3.238-2.364L119.392,98.697z"/>
		<path fill="#FF2E8D" d="M65.465,229h-47c-1.104,0-2,0.896-2,2s0.896,2,2,2h47c1.104,0,2-0.896,2-2S66.569,229,65.465,229z"/>
		<path fill="#FF2E8D" d="M93.465,229h-20c-1.104,0-2,0.896-2,2s0.896,2,2,2h20c1.104,0,2-0.896,2-2S94.569,229,93.465,229z"/>
		<path fill="#FF2E8D" d="M103.465,229c-1.104,0-2,0.896-2,2s0.896,2,2,2h55.072c0.056-1.343,0.139-2.679,0.273-4H103.465z"/>
		<path fill="#FF2E8D" d="M60.451,197.365c-1.085-0.19-2.125,0.535-2.317,1.623c-0.192,1.088,0.535,2.125,1.623,2.317
			l100.815,17.776c0.335-1.305,0.72-2.59,1.13-3.863L60.451,197.365z"/>
		<path fill="#FF2E8D" d="M179.996,143.246c-0.552-0.957-1.775-1.285-2.732-0.732c-0.957,0.552-1.284,1.775-0.732,2.732
			l17.947,31.086c1.182-0.62,2.385-1.202,3.607-1.753L179.996,143.246z"/>
		<path fill="#FF2E8D" d="M9.465,229h-1c-1.104,0-2,0.896-2,2s0.896,2,2,2h1c1.104,0,2-0.896,2-2S10.569,229,9.465,229z"/>
		<path fill="#FF2E8D" d="M183.867,106.909c-0.377-1.038-1.523-1.571-2.563-1.195c-1.038,0.378-1.573,1.525-1.195,2.563
			l23.35,64.153c1.256-0.439,2.53-0.839,3.819-1.204L183.867,106.909z"/>
		<path fill="#FF2E8D" d="M206.568,107.435c-0.192-1.088-1.229-1.812-2.317-1.623c-1.088,0.192-1.814,1.229-1.623,2.317
			l10.871,61.651c1.306-0.238,2.625-0.439,3.956-0.601L206.568,107.435z"/>
		<path fill="#FF2E8D" d="M165.401,67.87c0.295,0.812,1.062,1.317,1.879,1.317c0.227,0,0.458-0.039,0.684-0.121
			c1.038-0.377,1.574-1.525,1.196-2.563l-0.342-0.939c-0.377-1.038-1.525-1.573-2.563-1.196c-1.038,0.377-1.574,1.525-1.196,2.563
			L165.401,67.87z"/>
		<path fill="#FF2E8D" d="M168.764,127.791c-0.957,0.552-1.284,1.775-0.732,2.732l1,1.732c0.37,0.642,1.042,1,1.734,1
			c0.339,0,0.683-0.086,0.998-0.269c0.957-0.552,1.284-1.775,0.732-2.732l-1-1.732C170.944,127.566,169.72,127.238,168.764,127.791z
			"/>
		<path fill="#FF2E8D" d="M160.532,117.533c0.37,0.642,1.042,1,1.734,1c0.339,0,0.683-0.086,0.998-0.269
			c0.957-0.552,1.284-1.775,0.732-2.732l-34-58.89c-0.552-0.956-1.775-1.285-2.732-0.732c-0.957,0.552-1.284,1.775-0.732,2.732
			L160.532,117.533z"/>
		<path fill="#FF2E8D" d="M109.899,93.608c0.396,0.472,0.962,0.715,1.533,0.715c0.454,0,0.91-0.153,1.284-0.468
			c0.846-0.709,0.957-1.971,0.247-2.817l-0.643-0.766c-0.71-0.847-1.971-0.957-2.817-0.247c-0.846,0.709-0.957,1.971-0.247,2.817
			L109.899,93.608z"/>
		<path fill="#FF2E8D" d="M122.851,145.301c0.375,0.314,0.831,0.468,1.285,0.468c0.571,0,1.138-0.243,1.533-0.714
			c0.71-0.846,0.6-2.108-0.247-2.818l-15.321-12.856c-0.847-0.709-2.108-0.599-2.818,0.247c-0.71,0.846-0.6,2.108,0.247,2.818
			L122.851,145.301z"/>
		<path fill="#FF2E8D" d="M168.138,75.388l8.893,24.432c0.295,0.812,1.062,1.316,1.879,1.316c0.227,0,0.458-0.039,0.684-0.121
			c1.038-0.378,1.573-1.525,1.195-2.563l-8.893-24.432c-0.377-1.038-1.526-1.572-2.563-1.195
			C168.295,73.203,167.76,74.35,168.138,75.388z"/>
		<path fill="#FF2E8D" d="M39.425,197.688c0.952,0,1.796-0.683,1.967-1.653c0.192-1.088-0.535-2.125-1.623-2.317L2.348,187.12
			c-1.086-0.189-2.125,0.535-2.317,1.623c-0.192,1.088,0.535,2.125,1.623,2.317l37.422,6.599
			C39.193,197.678,39.31,197.688,39.425,197.688z"/>
		<path fill="#FF2E8D" d="M186.306,15.557c0.171,0.971,1.015,1.654,1.967,1.654c0.115,0,0.232-0.01,0.349-0.031
			c1.088-0.191,1.814-1.229,1.623-2.316l-0.173-0.985c-0.191-1.088-1.23-1.813-2.316-1.623c-1.088,0.191-1.814,1.229-1.623,2.316
			L186.306,15.557z"/>
		<path fill="#FF2E8D" d="M189.491,22.104c-1.088,0.192-1.814,1.229-1.623,2.317l8.162,46.286c0.171,0.971,1.015,1.653,1.967,1.653
			c0.115,0,0.232-0.01,0.35-0.031c1.088-0.192,1.814-1.229,1.623-2.317l-8.162-46.286C191.616,22.638,190.576,21.915,189.491,22.104
			z"/>
		<path fill="#FF2E8D" d="M40.129,162.607l63.899,23.257c0.226,0.082,0.457,0.121,0.684,0.121c0.817,0,1.584-0.504,1.879-1.316
			c0.378-1.038-0.157-2.186-1.195-2.563l-63.899-23.257c-1.037-0.375-2.186,0.157-2.563,1.195S39.091,162.229,40.129,162.607z"/>
		<path fill="#FF2E8D" d="M49.618,195.455c-1.084-0.188-2.125,0.535-2.316,1.623s0.535,2.125,1.623,2.316l0.985,0.173
			c0.117,0.021,0.234,0.031,0.349,0.031c0.953,0,1.796-0.683,1.967-1.654c0.191-1.088-0.535-2.125-1.623-2.316L49.618,195.455z"/>
		<path fill="#FF2E8D" d="M58.503,91.307c0.375,0.315,0.831,0.468,1.285,0.468c0.57,0,1.137-0.243,1.533-0.714
			c0.71-0.846,0.6-2.107-0.246-2.817L60.308,87.6c-0.845-0.711-2.107-0.6-2.817,0.246s-0.6,2.107,0.246,2.817L58.503,91.307z"/>
		<path fill="#FF2E8D" d="M77.016,140.212c-0.956-0.553-2.18-0.225-2.732,0.732c-0.552,0.957-0.225,2.18,0.732,2.732l0.866,0.5
			c0.315,0.182,0.659,0.269,0.998,0.269c0.691,0,1.364-0.359,1.734-1c0.552-0.957,0.225-2.18-0.732-2.732L77.016,140.212z"/>
		<path fill="#FF2E8D" d="M102.829,85.182c0.396,0.471,0.962,0.714,1.533,0.714c0.454,0,0.91-0.153,1.285-0.468
			c0.846-0.71,0.957-1.972,0.247-2.818L81.467,53.501c-0.709-0.846-1.972-0.956-2.818-0.247c-0.846,0.71-0.957,1.972-0.247,2.818
			L102.829,85.182z"/>
		<path fill="#FF2E8D" d="M101.401,127.303c0.375,0.314,0.831,0.468,1.285,0.468c0.571,0,1.138-0.243,1.533-0.714
			c0.71-0.846,0.6-2.108-0.247-2.818L67.969,94.028c-0.847-0.71-2.108-0.599-2.818,0.247c-0.71,0.846-0.6,2.108,0.247,2.818
			L101.401,127.303z"/>
		<path fill="#FF2E8D" d="M84.81,144.712c-0.957-0.553-2.18-0.225-2.732,0.732c-0.552,0.957-0.225,2.18,0.732,2.732l22.517,13
			c0.315,0.182,0.659,0.269,0.998,0.269c0.691,0,1.364-0.359,1.734-1c0.552-0.957,0.225-2.18-0.732-2.732L84.81,144.712z"/>
		<path fill="#FF2E8D" d="M179.18,187.345l-46.098-38.681c-0.847-0.71-2.108-0.599-2.818,0.247c-0.71,0.846-0.6,2.108,0.247,2.818
			l45.85,38.473C177.271,189.22,178.214,188.271,179.18,187.345z"/>
		<path fill="#FF2E8D" d="M120.003,191.679c0.226,0.082,0.457,0.121,0.684,0.121c0.817,0,1.584-0.504,1.879-1.316
			c0.378-1.038-0.157-2.186-1.195-2.563l-1.879-0.684c-1.037-0.375-2.186,0.157-2.563,1.195s0.157,2.186,1.195,2.563
			L120.003,191.679z"/>
		<path fill="#FF2E8D" d="M199.042,76.268c-1.088,0.192-1.814,1.229-1.623,2.317l3.473,19.696c0.171,0.97,1.015,1.653,1.967,1.653
			c0.115,0,0.232-0.01,0.35-0.031c1.088-0.192,1.814-1.229,1.623-2.317l-3.473-19.696C201.167,76.803,200.128,76.08,199.042,76.268z
			"/>
		<path fill="#FF2E8D" d="M224.465,42c1.104,0,2-0.896,2-2V2c0-1.104-0.896-2-2-2s-2,0.896-2,2v38
			C222.465,41.104,223.36,42,224.465,42z"/>
		<path fill="#FF2E8D" d="M224.465,53c1.104,0,2-0.896,2-2v-1c0-1.104-0.896-2-2-2s-2,0.896-2,2v1
			C222.465,52.104,223.36,53,224.465,53z"/>
		<path fill="#FF2E8D" d="M226.465,168.688V61c0-1.104-0.896-2-2-2s-2,0.896-2,2v107.747c1.05-0.049,2.105-0.08,3.167-0.08
			C225.911,168.667,226.186,168.684,226.465,168.688z"/>
		<path fill="#FF2E8D" d="M333.344,162.212c0.957-0.554,2.18-0.225,2.732,0.732c0.552,0.957,0.225,2.18-0.732,2.732l-56.723,32.749
			c-0.748-1.114-1.535-2.198-2.347-3.264L333.344,162.212z"/>
		<path fill="#FF2E8D" d="M312.998,193.051c1.037-0.376,2.186,0.157,2.563,1.195s-0.157,2.186-1.195,2.563l-30.456,11.085
			c-0.56-1.222-1.148-2.428-1.778-3.61L312.998,193.051z"/>
		<path fill="#FF2E8D" d="M329.073,98.697c0.71-0.846,1.972-0.957,2.818-0.247c0.846,0.71,0.957,1.972,0.247,2.818l-68.294,81.389
			c-1.057-0.817-2.132-1.611-3.238-2.364L329.073,98.697z"/>
		<path fill="#FF2E8D" d="M383,229h47c1.104,0,2,0.896,2,2s-0.896,2-2,2h-47c-1.104,0-2-0.896-2-2S381.896,229,383,229z"/>
		<path fill="#FF2E8D" d="M355,229h20c1.104,0,2,0.896,2,2s-0.896,2-2,2h-20c-1.104,0-2-0.896-2-2S353.896,229,355,229z"/>
		<path fill="#FF2E8D" d="M345,229c1.104,0,2,0.896,2,2s-0.896,2-2,2h-55.072c-0.056-1.343-0.139-3-0.273-4H345z"/>
		<path fill="#FF2E8D" d="M388.014,197.365c1.085-0.19,2.125,0.535,2.317,1.623c0.192,1.088-0.535,2.125-1.623,2.317
			l-100.815,17.776c-0.335-1.305-0.72-2.59-1.13-3.863L388.014,197.365z"/>
		<path fill="#FF2E8D" d="M268.469,143.246c0.552-0.957,1.775-1.285,2.732-0.732c0.957,0.552,1.284,1.775,0.732,2.732
			l-17.947,31.086c-1.182-0.62-2.385-1.202-3.607-1.753L268.469,143.246z"/>
		<path fill="#FF2E8D" d="M439,229h1c1.104,0,2,0.896,2,2s-0.896,2-2,2h-1c-1.104,0-2-0.896-2-2S437.896,229,439,229z"/>
		<path fill="#FF2E8D" d="M264.598,106.909c0.377-1.038,1.523-1.571,2.563-1.195c1.038,0.378,1.573,1.525,1.195,2.563l-23.35,64.153
			c-1.256-0.439-2.53-0.839-3.819-1.204L264.598,106.909z"/>
		<path fill="#FF2E8D" d="M241.896,107.435c0.192-1.088,1.229-1.812,2.317-1.623c1.088,0.192,1.814,1.229,1.623,2.317
			l-10.871,61.651c-1.306-0.238-2.625-0.439-3.956-0.601L241.896,107.435z"/>
		<path fill="#FF2E8D" d="M283.063,67.87c-0.295,0.812-1.062,1.317-1.879,1.317c-0.227,0-0.458-0.039-0.684-0.121
			c-1.038-0.377-1.574-1.525-1.196-2.563l0.342-0.939c0.377-1.038,1.525-1.573,2.563-1.196c1.038,0.377,1.574,1.525,1.196,2.563
			L283.063,67.87z"/>
		<path fill="#FF2E8D" d="M279.701,127.791c0.957,0.552,1.284,1.775,0.732,2.732l-1,1.732c-0.37,0.642-1.042,1-1.734,1
			c-0.339,0-0.683-0.086-0.998-0.269c-0.957-0.552-1.284-1.775-0.732-2.732l1-1.732
			C277.521,127.566,278.745,127.238,279.701,127.791z"/>
		<path fill="#FF2E8D" d="M287.933,117.533c-0.37,0.642-1.042,1-1.734,1c-0.339,0-0.683-0.086-0.998-0.269
			c-0.957-0.552-1.284-1.775-0.732-2.732l34-58.89c0.552-0.956,1.775-1.285,2.732-0.732c0.957,0.552,1.284,1.775,0.732,2.732
			L287.933,117.533z"/>
		<path fill="#FF2E8D" d="M338.565,93.608c-0.396,0.472-0.962,0.715-1.533,0.715c-0.454,0-0.91-0.153-1.284-0.468
			c-0.846-0.709-0.957-1.971-0.247-2.817l0.643-0.766c0.71-0.847,1.971-0.957,2.817-0.247c0.846,0.709,0.957,1.971,0.247,2.817
			L338.565,93.608z"/>
		<path fill="#FF2E8D" d="M325.614,145.301c-0.375,0.314-0.831,0.468-1.285,0.468c-0.571,0-1.138-0.243-1.533-0.714
			c-0.71-0.846-0.6-2.108,0.247-2.818l15.321-12.856c0.847-0.709,2.108-0.599,2.818,0.247c0.71,0.846,0.6,2.108-0.247,2.818
			L325.614,145.301z"/>
		<path fill="#FF2E8D" d="M280.327,75.388l-8.893,24.432c-0.295,0.812-1.062,1.316-1.879,1.316c-0.227,0-0.458-0.039-0.684-0.121
			c-1.038-0.378-1.573-1.525-1.195-2.563l8.893-24.432c0.377-1.038,1.526-1.572,2.563-1.195
			C280.17,73.203,280.705,74.35,280.327,75.388z"/>
		<path fill="#FF2E8D" d="M409.04,197.688c-0.952,0-1.796-0.683-1.967-1.653c-0.192-1.088,0.535-2.125,1.623-2.317l37.422-6.599
			c1.086-0.189,2.125,0.535,2.317,1.623c0.192,1.088-0.535,2.125-1.623,2.317l-37.422,6.599
			C409.272,197.678,409.155,197.688,409.04,197.688z"/>
		<path fill="#FF2E8D" d="M262.159,15.557c-0.171,0.971-1.015,1.654-1.967,1.654c-0.115,0-0.232-0.01-0.349-0.031
			c-1.088-0.191-1.814-1.229-1.623-2.316l0.173-0.985c0.191-1.088,1.23-1.813,2.316-1.623c1.088,0.191,1.814,1.229,1.623,2.316
			L262.159,15.557z"/>
		<path fill="#FF2E8D" d="M258.974,22.104c1.088,0.192,1.814,1.229,1.623,2.317l-8.162,46.286c-0.171,0.971-1.015,1.653-1.967,1.653
			c-0.115,0-0.232-0.01-0.35-0.031c-1.088-0.192-1.814-1.229-1.623-2.317l8.162-46.286
			C256.849,22.638,257.889,21.915,258.974,22.104z"/>
		<path fill="#FF2E8D" d="M408.335,162.607l-63.899,23.257c-0.226,0.082-0.457,0.121-0.684,0.121c-0.817,0-1.584-0.504-1.879-1.316
			c-0.378-1.038,0.157-2.186,1.195-2.563l63.899-23.257c1.037-0.375,2.186,0.157,2.563,1.195S409.374,162.229,408.335,162.607z"/>
		<path fill="#FF2E8D" d="M398.847,195.455c1.084-0.188,2.125,0.535,2.316,1.623s-0.535,2.125-1.623,2.316l-0.985,0.173
			c-0.117,0.021-0.234,0.031-0.349,0.031c-0.953,0-1.796-0.683-1.967-1.654c-0.191-1.088,0.535-2.125,1.623-2.316L398.847,195.455z"
			/>
		<path fill="#FF2E8D" d="M389.962,91.307c-0.375,0.315-0.831,0.468-1.285,0.468c-0.57,0-1.137-0.243-1.533-0.714
			c-0.71-0.846-0.6-2.107,0.246-2.817l0.766-0.643c0.845-0.711,2.107-0.6,2.817,0.246s0.6,2.107-0.246,2.817L389.962,91.307z"/>
		<path fill="#FF2E8D" d="M371.449,140.212c0.956-0.553,2.18-0.225,2.732,0.732c0.552,0.957,0.225,2.18-0.732,2.732l-0.866,0.5
			c-0.315,0.182-0.659,0.269-0.998,0.269c-0.691,0-1.364-0.359-1.734-1c-0.552-0.957-0.225-2.18,0.732-2.732L371.449,140.212z"/>
		<path fill="#FF2E8D" d="M345.636,85.182c-0.396,0.471-0.962,0.714-1.533,0.714c-0.454,0-0.91-0.153-1.285-0.468
			c-0.846-0.71-0.957-1.972-0.247-2.818l24.426-29.109c0.709-0.846,1.972-0.956,2.818-0.247c0.846,0.71,0.957,1.972,0.247,2.818
			L345.636,85.182z"/>
		<path fill="#FF2E8D" d="M347.063,127.303c-0.375,0.314-0.831,0.468-1.285,0.468c-0.571,0-1.138-0.243-1.533-0.714
			c-0.71-0.846-0.6-2.108,0.247-2.818l36.004-30.211c0.847-0.71,2.108-0.599,2.818,0.247c0.71,0.846,0.6,2.108-0.247,2.818
			L347.063,127.303z"/>
		<path fill="#FF2E8D" d="M363.655,144.712c0.957-0.553,2.18-0.225,2.732,0.732c0.552,0.957,0.225,2.18-0.732,2.732l-22.517,13
			c-0.315,0.182-0.659,0.269-0.998,0.269c-0.691,0-1.364-0.359-1.734-1c-0.552-0.957-0.225-2.18,0.732-2.732L363.655,144.712z"/>
		<path fill="#FF2E8D" d="M269.285,187.345l46.098-38.681c0.847-0.71,2.108-0.599,2.818,0.247c0.71,0.846,0.6,2.108-0.247,2.818
			l-45.85,38.473C271.194,189.22,270.251,188.271,269.285,187.345z"/>
		<path fill="#FF2E8D" d="M328.462,191.679c-0.226,0.082-0.457,0.121-0.684,0.121c-0.817,0-1.584-0.504-1.879-1.316
			c-0.378-1.038,0.157-2.186,1.195-2.563l1.879-0.684c1.037-0.375,2.186,0.157,2.563,1.195s-0.157,2.186-1.195,2.563
			L328.462,191.679z"/>
		<path fill="#FF2E8D" d="M249.423,76.268c1.088,0.192,1.814,1.229,1.623,2.317l-3.473,19.696c-0.171,0.97-1.015,1.653-1.967,1.653
			c-0.115,0-0.232-0.01-0.35-0.031c-1.088-0.192-1.814-1.229-1.623-2.317l3.473-19.696C247.298,76.803,248.336,76.08,249.423,76.268
			z"/>
	</g>
</g>
</svg>
