<?xml version="1.0" encoding="utf-8"?><!DOCTYPE svg PUBLIC "-//W3C//DTD SVG 1.1//EN" "http://www.w3.org/Graphics/SVG/1.1/DTD/svg11.dtd">
<svg version="1.1" id="Layer_1" xmlns="http://www.w3.org/2000/svg" xmlns:xlink="http://www.w3.org/1999/xlink" x="0px" y="0px" width="291.688px" height="291.688px" viewBox="0 0 291.688 291.688" enable-background="new 0 0 291.688 291.688" xml:space="preserve">
<g id="change1_1"><path fill="#EF6C43" d="M141.943,273.569l-0.986-0.034l0.152-3.873l0.951,0.032L141.943,273.569z M153.741,273.386l-0.234-3.869
	l0.949-0.062l0.27,3.867L153.741,273.386z M129.201,272.553l-0.973-0.131l0.527-3.84l0.949,0.127L129.201,272.553z M166.446,271.973
	l-0.621-3.826l0.944-0.156l0.645,3.822L166.446,271.973z M116.625,270.271l-0.961-0.229l0.915-3.768l0.924,0.221L116.625,270.271z
	 M178.947,269.297l-0.998-3.746l0.918-0.249l1.031,3.736L178.947,269.297z M104.335,266.734l-0.937-0.326l1.294-3.654l0.902,0.314
	L104.335,266.734z M191.12,265.375l-1.379-3.623l0.891-0.342l1.408,3.611L191.12,265.375z M92.459,261.976l-0.89-0.413l1.64-3.514
	l0.873,0.405L92.459,261.976z M202.832,260.247l-1.738-3.465l0.855-0.432l1.752,3.459L202.832,260.247z M81.125,256.049
	l-0.846-0.502l1.988-3.328l0.824,0.488L81.125,256.049z M213.968,253.973l-2.076-3.273l0.809-0.516l2.09,3.266L213.968,253.973z
	 M70.44,249.018l-0.789-0.582l2.311-3.113l0.772,0.57L70.44,249.018z M224.427,246.616l-2.398-3.045l0.756-0.596l2.406,3.039
	L224.427,246.616z M60.513,240.962l-0.729-0.66l2.612-2.865l0.708,0.641L60.513,240.962z M234.09,238.263l-2.676-2.805l0.687-0.66
	l2.699,2.781L234.09,238.263z M51.437,231.96l-0.663-0.731l2.887-2.588l0.637,0.704L51.437,231.96z M242.887,228.984l-2.943-2.523
	l0.617-0.726l2.965,2.496L242.887,228.984z M43.298,222.1l-0.582-0.787l3.122-2.297l0.568,0.768L43.298,222.1z M250.716,218.875
	l-3.178-2.221l0.541-0.783l3.199,2.191L250.716,218.875z M36.183,211.478l-0.5-0.84l3.337-1.975l0.489,0.822L36.183,211.478z
	 M257.498,208.037l-3.381-1.896c0.154-0.275,0.308-0.553,0.459-0.831l3.402,1.859C257.819,207.458,257.66,207.748,257.498,208.037z
	 M30.167,200.203l-0.414-0.889l3.52-1.625l0.401,0.861L30.167,200.203z M263.166,196.563l-3.561-1.535l0.379-0.884l3.568,1.516
	L263.166,196.563z M25.311,188.379l-0.325-0.933l3.668-1.256l0.313,0.899L25.311,188.379z M267.646,184.593l-3.689-1.191
	c0.097-0.3,0.191-0.602,0.284-0.904l3.705,1.143C267.848,183.958,267.749,184.276,267.646,184.593z M21.67,176.125l-0.229-0.958
	l3.774-0.885l0.222,0.927L21.67,176.125z M270.903,172.216l-3.795-0.797l0.192-0.932l3.801,0.762L270.903,172.216z M19.28,163.566
	l-0.131-0.973l3.843-0.51l0.128,0.947L19.28,163.566z M272.897,159.586l-3.855-0.41l0.099-0.952l3.857,0.387L272.897,159.586z
	 M18.156,150.832l-0.034-0.977l3.875-0.123l0.033,0.953L18.156,150.832z M273.624,147.017l-3.877,0.058l0.004-0.858h3.877
	L273.624,147.017z M22.164,138.289l-3.87-0.234l0.062-0.979l3.868,0.258L22.164,138.289z M269.447,137.112l-0.069-0.955l3.865-0.293
	l0.071,0.978L269.447,137.112z M23.524,125.964l-3.828-0.614l0.161-0.972l3.822,0.645L23.524,125.964z M267.973,124.805
	l-0.165-0.943l3.816-0.68l0.169,0.967L267.973,124.805z M26.109,113.842l-3.747-0.995l0.257-0.952l3.738,1.027L26.109,113.842z
	 M265.269,112.701c-0.083-0.304-0.169-0.607-0.255-0.91l3.727-1.066c0.092,0.318,0.182,0.637,0.269,0.956L265.269,112.701z
	 M29.901,102.044l-3.626-1.372l0.353-0.922l3.615,1.399L29.901,102.044z M261.369,100.949l-0.354-0.895l3.604-1.432l0.357,0.908
	L261.369,100.949z M34.865,90.678l-3.47-1.729l0.443-0.881l3.457,1.755L34.865,90.678z M256.298,89.633l-0.436-0.846L259.302,87
	l0.449,0.872L256.298,89.633z M40.944,79.867l-3.281-2.064l0.53-0.834l3.263,2.094L40.944,79.867z M250.119,78.886l-0.516-0.794
	l3.242-2.126l0.537,0.828L250.119,78.886z M48.071,69.721l-3.058-2.384l0.609-0.775l3.037,2.409L48.071,69.721z M242.9,68.81
	l-0.594-0.741l3.014-2.438l0.617,0.77L242.9,68.81z M56.173,60.333l-2.805-2.676l0.681-0.709l2.785,2.697L56.173,60.333z
	 M234.717,59.504l-0.672-0.686l2.762-2.721l0.684,0.698L234.717,59.504z M65.169,51.796l-2.528-2.938l0.751-0.64l2.5,2.963
	L65.169,51.796z M225.643,51.05l-0.733-0.613l2.475-2.984l0.755,0.631L225.643,51.05z M74.965,44.199l-2.221-3.178l0.809-0.56
	l2.193,3.196L74.965,44.199z M215.771,43.541l-0.789-0.536l2.164-3.217l0.816,0.554L215.771,43.541z M85.467,37.617l-1.892-3.384
	l0.859-0.476l1.864,3.399L85.467,37.617z M205.204,37.055l-0.842-0.457l1.836-3.414l0.865,0.469L205.204,37.055z M96.573,32.12
	l-1.543-3.557l0.902-0.387l1.512,3.57L96.573,32.12z M194.037,31.659l-0.883-0.369l1.482-3.582l0.91,0.381L194.037,31.659z
	 M108.173,27.767l-1.179-3.693l0.937-0.295l1.153,3.701L108.173,27.767z M182.383,27.413l-0.91-0.276l1.113-3.714l0.943,0.287
	L182.383,27.413z M120.155,24.603l-0.798-3.794l0.962-0.199l0.772,3.799L120.155,24.603z M170.373,24.364l-0.937-0.184l0.732-3.807
	l0.966,0.19L170.373,24.364z M132.397,22.658l-0.416-3.854l0.976-0.102l0.393,3.856L132.397,22.658z M158.113,22.537l-0.953-0.089
	l0.352-3.861l0.977,0.092L158.113,22.537z M144.775,21.941l-0.035-3.877l0.984-0.005l0.006,3.877L144.775,21.941z"></path></g>
<g id="change1_2"><path fill="#EF6C43" d="M145.844,263.52c-64.886,0-117.675-52.789-117.675-117.676S80.958,28.168,145.844,28.168
	c64.888,0,117.677,52.789,117.677,117.676S210.731,263.52,145.844,263.52z M145.844,29.163
	c-64.338,0-116.681,52.343-116.681,116.682c0,64.339,52.343,116.682,116.681,116.682c64.339,0,116.683-52.343,116.683-116.682
	C262.526,81.506,210.183,29.163,145.844,29.163z"></path></g>
<g id="change1_3"><path fill="#EF6C43" d="M146.937,282.216c-0.627,0-1.139-0.699-1.144-1.328c-0.005-0.633,0.502-1.401,1.134-1.407l1.031-0.265
	c0.006,0,0.012,0,0.017,0c0.625,0,1.136,0.658,1.145,1.283c0.009,0.633-0.496,1.424-1.128,1.434l-1.044,0.283
	C146.943,282.216,146.94,282.216,146.937,282.216z M140.746,282.216c-0.014,0-0.028,0-0.042,0l-1.047-0.281
	c-0.631-0.029-1.12-0.684-1.091-1.315c0.029-0.631,0.578-1.144,1.195-1.151l1.028,0.014c0.631,0.023,1.125,0.776,1.102,1.408
	C141.866,281.507,141.359,282.216,140.746,282.216z M154.161,281.582c-0.6,0-1.104-0.467-1.141-1.073
	c-0.04-0.631,0.439-1.174,1.07-1.213l1.03-0.067c0.646-0.048,1.176,0.434,1.219,1.064c0.043,0.63-0.434,1.176-1.064,1.219
	l-1.042,0.067C154.209,281.581,154.185,281.582,154.161,281.582z M133.532,281.279c-0.035,0-0.069-0.002-0.104-0.005l-1.044-0.099
	c-0.628-0.062-1.088-0.623-1.025-1.252s0.628-1.092,1.252-1.025l1.024,0.097c0.629,0.057,1.094,0.613,1.037,1.243
	C134.616,280.832,134.117,281.279,133.532,281.279z M161.363,280.95c-0.574,0-1.069-0.432-1.136-1.016
	c-0.071-0.628,0.38-1.194,1.008-1.266l1.021-0.121c0.629-0.082,1.198,0.37,1.274,0.997c0.077,0.627-0.37,1.198-0.997,1.274
	l-1.041,0.123C161.449,280.947,161.406,280.95,161.363,280.95z M126.352,280.434c-0.055,0-0.11-0.004-0.166-0.012l-1.034-0.153
	c-0.625-0.095-1.055-0.679-0.96-1.303c0.095-0.625,0.678-1.056,1.303-0.961l1.02,0.151c0.625,0.092,1.059,0.672,0.968,1.297
	C127.4,280.024,126.911,280.434,126.352,280.434z M168.522,279.934c-0.549,0-1.033-0.396-1.127-0.954
	c-0.105-0.623,0.314-1.213,0.938-1.318l1.013-0.177c0.621-0.108,1.217,0.305,1.327,0.927s-0.305,1.216-0.927,1.327l-1.032,0.179
	C168.649,279.929,168.585,279.934,168.522,279.934z M119.227,279.207c-0.075,0-0.15-0.008-0.227-0.022l-1.025-0.21
	c-0.619-0.128-1.016-0.734-0.887-1.353c0.128-0.62,0.733-1.019,1.353-0.888l1.01,0.206c0.62,0.125,1.021,0.729,0.896,1.348
	C120.238,278.831,119.761,279.207,119.227,279.207z M175.615,278.536c-0.523,0-0.995-0.361-1.115-0.893
	c-0.139-0.617,0.248-1.229,0.864-1.368l1.002-0.23c0.612-0.145,1.231,0.237,1.376,0.853s-0.237,1.231-0.853,1.376l-1.021,0.234
	C175.783,278.527,175.698,278.536,175.615,278.536z M112.178,277.596c-0.094,0-0.189-0.012-0.285-0.036l-1.015-0.266
	c-0.611-0.162-0.974-0.788-0.812-1.399c0.163-0.609,0.789-0.975,1.4-0.812l0.995,0.26c0.612,0.157,0.981,0.78,0.824,1.393
	C113.153,277.252,112.688,277.596,112.178,277.596z M182.622,276.756c-0.499,0-0.958-0.33-1.101-0.834
	c-0.171-0.608,0.184-1.241,0.791-1.412l0.988-0.283c0.608-0.175,1.242,0.171,1.419,0.778s-0.172,1.242-0.778,1.419l-1.008,0.289
	C182.829,276.743,182.726,276.756,182.622,276.756z M105.226,275.608c-0.114,0-0.23-0.018-0.344-0.053
	c-0.336-0.106-0.671-0.213-1.006-0.322c-0.601-0.197-0.928-0.844-0.731-1.444c0.196-0.601,0.843-0.926,1.443-0.731
	c0.327,0.107,0.654,0.212,0.981,0.314c0.603,0.19,0.938,0.833,0.748,1.436C106.163,275.295,105.712,275.608,105.226,275.608z
	 M189.524,274.602c-0.476,0-0.92-0.299-1.083-0.774c-0.204-0.598,0.114-1.248,0.713-1.453l0.974-0.337
	c0.598-0.211,1.249,0.105,1.458,0.702c0.209,0.596-0.105,1.249-0.702,1.458l-0.989,0.343
	C189.772,274.583,189.647,274.602,189.524,274.602z M98.373,273.241c-0.134,0-0.27-0.023-0.402-0.073l-0.983-0.375
	c-0.59-0.228-0.883-0.89-0.656-1.479c0.228-0.592,0.891-0.886,1.479-0.656l0.965,0.367c0.591,0.222,0.891,0.882,0.669,1.474
	C99.271,272.958,98.835,273.241,98.373,273.241z M196.299,272.076c-0.452,0-0.881-0.271-1.061-0.716
	c-0.237-0.586,0.046-1.253,0.632-1.489l0.955-0.391c0.583-0.24,1.252,0.037,1.494,0.623c0.24,0.584-0.039,1.253-0.623,1.494
	l-0.969,0.395C196.587,272.048,196.442,272.076,196.299,272.076z M91.661,270.505c-0.154,0-0.31-0.031-0.46-0.097l-0.961-0.427
	c-0.576-0.26-0.833-0.938-0.574-1.514c0.26-0.576,0.937-0.832,1.513-0.574l0.943,0.419c0.579,0.255,0.841,0.93,0.587,1.508
	C92.521,270.25,92.101,270.505,91.661,270.505z M202.917,269.196c-0.432,0-0.845-0.245-1.038-0.661
	c-0.267-0.573-0.019-1.254,0.554-1.521l0.927-0.438c0.571-0.271,1.253-0.03,1.525,0.541c0.271,0.57,0.029,1.253-0.541,1.525
	l-0.944,0.445C203.243,269.162,203.078,269.196,202.917,269.196z M85.109,267.415c-0.173,0-0.349-0.04-0.515-0.123
	c-0.313-0.158-0.626-0.317-0.938-0.479c-0.561-0.291-0.78-0.981-0.489-1.543c0.292-0.562,0.983-0.78,1.542-0.488
	c0.305,0.158,0.61,0.313,0.916,0.468c0.564,0.285,0.791,0.973,0.506,1.537C85.93,267.184,85.527,267.415,85.109,267.415z
	 M209.367,265.963c-0.408,0-0.804-0.22-1.01-0.604c-0.298-0.558-0.088-1.251,0.469-1.549l0.903-0.488
	c0.555-0.301,1.25-0.098,1.553,0.457s0.098,1.25-0.457,1.553l-0.919,0.496C209.734,265.919,209.55,265.963,209.367,265.963z
	 M78.736,263.976c-0.193,0-0.39-0.049-0.569-0.152l-0.906-0.525c-0.546-0.318-0.73-1.019-0.412-1.564
	c0.318-0.547,1.019-0.729,1.564-0.412l0.895,0.518c0.548,0.315,0.737,1.015,0.422,1.562
	C79.517,263.77,79.132,263.976,78.736,263.976z M215.639,262.39c-0.386,0-0.763-0.195-0.979-0.549
	c-0.328-0.54-0.157-1.244,0.382-1.573l0.878-0.537c0.54-0.331,1.243-0.166,1.575,0.372s0.165,1.243-0.372,1.575l-0.89,0.545
	C216.047,262.336,215.842,262.39,215.639,262.39z M72.559,260.2c-0.213,0-0.429-0.06-0.621-0.185
	c-0.294-0.19-0.587-0.382-0.88-0.575c-0.527-0.349-0.671-1.059-0.322-1.586s1.06-0.672,1.586-0.322
	c0.286,0.189,0.573,0.377,0.86,0.563c0.53,0.343,0.682,1.052,0.338,1.582C73.301,260.015,72.934,260.2,72.559,260.2z
	 M221.712,258.483c-0.364,0-0.722-0.174-0.944-0.496c-0.357-0.521-0.226-1.233,0.295-1.592l0.852-0.585
	c0.521-0.356,1.233-0.229,1.592,0.291c0.359,0.521,0.229,1.232-0.291,1.592l-0.855,0.589
	C222.161,258.417,221.936,258.483,221.712,258.483z M66.595,256.101c-0.233,0-0.469-0.071-0.673-0.22l-0.843-0.617
	c-0.509-0.375-0.618-1.091-0.244-1.6c0.374-0.509,1.09-0.618,1.6-0.244l0.834,0.611c0.511,0.372,0.623,1.088,0.251,1.599
	C67.297,255.938,66.949,256.101,66.595,256.101z M227.569,254.255c-0.345,0-0.687-0.155-0.911-0.451
	c-0.383-0.503-0.286-1.221,0.217-1.604l0.814-0.626c0.5-0.389,1.219-0.297,1.605,0.203c0.388,0.5,0.296,1.219-0.203,1.605
	l-0.83,0.638C228.055,254.179,227.811,254.255,227.569,254.255z M60.861,251.69c-0.254,0-0.51-0.084-0.722-0.258l-0.808-0.661
	c-0.488-0.401-0.558-1.123-0.157-1.61c0.402-0.489,1.122-0.558,1.611-0.157l0.799,0.655c0.49,0.398,0.563,1.119,0.165,1.609
	C61.522,251.545,61.193,251.69,60.861,251.69z M233.194,249.721c-0.325,0-0.647-0.138-0.874-0.404
	c-0.408-0.482-0.349-1.204,0.133-1.613c0.261-0.221,0.521-0.443,0.779-0.668c0.479-0.416,1.2-0.361,1.614,0.116
	c0.413,0.478,0.361,1.2-0.116,1.614c-0.265,0.229-0.53,0.457-0.797,0.684C233.719,249.631,233.455,249.721,233.194,249.721z
	 M55.371,246.98c-0.273,0-0.548-0.098-0.767-0.296l-0.775-0.707c-0.465-0.429-0.494-1.152-0.066-1.617
	c0.427-0.465,1.151-0.494,1.617-0.066l0.759,0.693c0.469,0.424,0.505,1.147,0.081,1.616C55.994,246.853,55.683,246.98,55.371,246.98
	z M238.571,244.892c-0.304,0-0.607-0.121-0.833-0.36c-0.434-0.46-0.411-1.184,0.049-1.617c0.248-0.234,0.495-0.471,0.74-0.707
	c0.456-0.44,1.179-0.426,1.618,0.028c0.439,0.455,0.426,1.18-0.028,1.618c-0.253,0.244-0.506,0.486-0.762,0.727
	C239.135,244.789,238.853,244.892,238.571,244.892z M50.143,241.986c-0.294,0-0.588-0.113-0.812-0.338l-0.736-0.746
	c-0.441-0.452-0.433-1.177,0.02-1.618c0.453-0.441,1.178-0.433,1.618,0.019l0.721,0.732c0.445,0.448,0.443,1.173-0.005,1.618
	C50.726,241.875,50.434,241.986,50.143,241.986z M243.685,239.781c-0.283,0-0.566-0.104-0.788-0.314
	c-0.458-0.436-0.477-1.159-0.042-1.618l0.706-0.749c0.432-0.462,1.155-0.485,1.617-0.055c0.462,0.432,0.486,1.155,0.055,1.617
	l-0.718,0.763C244.289,239.661,243.987,239.781,243.685,239.781z M45.189,236.721c-0.314,0-0.627-0.129-0.854-0.382
	c-0.233-0.261-0.465-0.522-0.696-0.787c-0.416-0.476-0.368-1.198,0.108-1.614c0.477-0.416,1.199-0.367,1.615,0.108
	c0.225,0.257,0.452,0.513,0.68,0.768c0.421,0.472,0.381,1.194-0.09,1.616C45.733,236.625,45.46,236.721,45.189,236.721z
	 M248.52,234.404c-0.263,0-0.527-0.091-0.742-0.274c-0.48-0.411-0.537-1.134-0.127-1.613c0.223-0.261,0.443-0.522,0.664-0.785
	c0.405-0.482,1.126-0.548,1.612-0.142c0.484,0.406,0.548,1.128,0.142,1.612c-0.225,0.269-0.451,0.536-0.678,0.801
	C249.164,234.268,248.843,234.404,248.52,234.404z M40.524,231.203c-0.336,0-0.668-0.147-0.894-0.43l-0.651-0.819
	c-0.391-0.497-0.305-1.217,0.192-1.607s1.216-0.304,1.607,0.192l0.639,0.805c0.395,0.493,0.315,1.213-0.178,1.608
	C41.027,231.121,40.774,231.203,40.524,231.203z M253.063,228.775c-0.243,0-0.488-0.077-0.696-0.237
	c-0.501-0.385-0.595-1.104-0.21-1.604c0.208-0.271,0.414-0.544,0.62-0.817c0.38-0.506,1.097-0.606,1.602-0.229
	c0.506,0.379,0.608,1.096,0.229,1.602c-0.21,0.281-0.422,0.561-0.636,0.839C253.746,228.621,253.407,228.775,253.063,228.775z
	 M36.16,225.444c-0.357,0-0.708-0.167-0.932-0.479l-0.604-0.851c-0.365-0.517-0.242-1.23,0.275-1.595
	c0.515-0.365,1.23-0.24,1.595,0.274l0.596,0.839c0.368,0.515,0.249,1.229-0.265,1.597C36.623,225.375,36.391,225.444,36.16,225.444z
	 M257.302,222.909c-0.222,0-0.445-0.064-0.642-0.198c-0.523-0.354-0.659-1.066-0.304-1.589l0.578-0.856
	c0.353-0.525,1.065-0.663,1.588-0.312c0.524,0.353,0.665,1.063,0.312,1.588l-0.586,0.866
	C258.028,222.733,257.668,222.909,257.302,222.909z M32.112,219.463c-0.377,0-0.747-0.187-0.965-0.528l-0.559-0.882
	c-0.336-0.535-0.175-1.241,0.36-1.578c0.534-0.338,1.242-0.176,1.578,0.359l0.549,0.868c0.341,0.532,0.185,1.24-0.348,1.58
	C32.537,219.405,32.323,219.463,32.112,219.463z M261.22,216.824c-0.202,0-0.406-0.054-0.592-0.166
	c-0.54-0.327-0.713-1.03-0.386-1.571l0.532-0.885c0.323-0.543,1.025-0.721,1.568-0.396c0.543,0.323,0.721,1.026,0.396,1.568
	l-0.54,0.898C261.984,216.627,261.606,216.824,261.22,216.824z M28.391,213.277c-0.399,0-0.787-0.209-0.997-0.582l-0.511-0.91
	c-0.307-0.553-0.107-1.249,0.445-1.556c0.551-0.309,1.249-0.107,1.556,0.444l0.502,0.896c0.311,0.55,0.117,1.248-0.433,1.559
	C28.774,213.229,28.582,213.277,28.391,213.277z M264.806,210.535c-0.184,0-0.37-0.044-0.543-0.138
	c-0.556-0.3-0.763-0.994-0.463-1.551c0.163-0.301,0.322-0.604,0.481-0.907c0.292-0.559,0.982-0.776,1.545-0.482
	c0.56,0.293,0.775,0.984,0.482,1.545c-0.163,0.312-0.328,0.622-0.495,0.933C265.606,210.317,265.213,210.535,264.806,210.535z
	 M25.007,206.902c-0.421,0-0.826-0.233-1.026-0.636l-0.461-0.938c-0.276-0.568-0.039-1.253,0.529-1.529
	c0.568-0.276,1.252-0.039,1.529,0.529l0.452,0.92c0.281,0.565,0.05,1.252-0.516,1.533C25.352,206.864,25.178,206.902,25.007,206.902
	z M268.052,204.059c-0.162,0-0.328-0.035-0.484-0.108c-0.572-0.269-0.819-0.95-0.551-1.521l0.434-0.937
	c0.263-0.574,0.941-0.829,1.517-0.563c0.574,0.263,0.827,0.942,0.563,1.517l-0.441,0.954
	C268.895,203.816,268.482,204.059,268.052,204.059z M21.973,200.358c-0.443,0-0.865-0.259-1.051-0.692l-0.409-0.957
	c-0.246-0.582,0.026-1.254,0.608-1.5c0.583-0.244,1.253,0.025,1.5,0.607l0.403,0.945c0.25,0.58-0.018,1.253-0.598,1.503
	C22.278,200.328,22.124,200.358,21.973,200.358z M270.944,197.415c-0.143,0-0.287-0.026-0.428-0.083
	c-0.586-0.236-0.87-0.903-0.634-1.489l0.385-0.961c0.232-0.588,0.901-0.874,1.484-0.644c0.588,0.233,0.876,0.897,0.644,1.485
	l-0.39,0.975C271.826,197.144,271.397,197.415,270.944,197.415z M19.295,193.664c-0.465,0-0.903-0.286-1.074-0.748l-0.358-0.983
	c-0.215-0.595,0.093-1.251,0.688-1.465c0.592-0.218,1.25,0.093,1.464,0.688l0.354,0.968c0.219,0.594-0.085,1.251-0.678,1.47
	C19.561,193.641,19.427,193.664,19.295,193.664z M273.474,190.622c-0.122,0-0.247-0.02-0.369-0.062
	c-0.599-0.204-0.918-0.854-0.714-1.452l0.332-0.982c0.2-0.599,0.845-0.922,1.448-0.722c0.599,0.2,0.922,0.849,0.722,1.448
	l-0.336,0.994C274.395,190.322,273.95,190.622,273.474,190.622z M16.977,186.815c-0.489,0-0.941-0.315-1.093-0.808l-0.305-1.002
	c-0.182-0.605,0.162-1.243,0.768-1.425c0.604-0.184,1.243,0.162,1.425,0.767l0.299,0.986c0.187,0.604-0.152,1.244-0.756,1.431
	C17.202,186.798,17.088,186.815,16.977,186.815z M275.628,183.715c-0.104,0-0.207-0.014-0.312-0.043
	c-0.607-0.171-0.962-0.804-0.791-1.412l0.276-0.993c0.168-0.609,0.801-0.963,1.407-0.8c0.609,0.168,0.967,0.798,0.8,1.407
	l-0.28,1.007C276.586,183.385,276.127,183.715,275.628,183.715z M15.031,179.851c-0.513,0-0.979-0.347-1.109-0.867l-0.25-1.019
	c-0.148-0.614,0.23-1.232,0.845-1.38c0.61-0.147,1.232,0.229,1.38,0.845l0.246,0.999c0.153,0.613-0.219,1.234-0.833,1.388
	C15.216,179.84,15.123,179.851,15.031,179.851z M277.405,176.708c-0.083,0-0.168-0.009-0.253-0.028
	c-0.616-0.139-1.003-0.751-0.864-1.368l0.222-1.005c0.133-0.617,0.741-1.006,1.36-0.876c0.617,0.133,1.01,0.742,0.876,1.36
	l-0.226,1.024C278.4,176.346,277.929,176.708,277.405,176.708z M13.464,172.793c-0.537,0-1.016-0.38-1.122-0.927l-0.195-1.028
	c-0.115-0.622,0.295-1.219,0.917-1.334c0.619-0.111,1.219,0.295,1.333,0.916l0.192,1.011c0.12,0.62-0.285,1.221-0.906,1.341
	C13.61,172.787,13.536,172.793,13.464,172.793z M278.801,169.613c-0.063,0-0.127-0.005-0.191-0.017
	c-0.623-0.105-1.043-0.695-0.938-1.318l0.167-1.015c0.1-0.623,0.678-1.051,1.311-0.949c0.624,0.1,1.049,0.687,0.949,1.311
	l-0.171,1.034C279.834,169.217,279.35,169.613,278.801,169.613z M12.28,165.662c-0.562,0-1.053-0.415-1.132-0.988l-0.14-1.037
	c-0.082-0.627,0.36-1.201,0.986-1.283c0.627-0.088,1.201,0.36,1.283,0.986l0.137,1.021c0.087,0.626-0.351,1.203-0.977,1.29
	C12.385,165.658,12.332,165.662,12.28,165.662z M279.812,162.455c-0.043,0-0.086-0.003-0.13-0.008
	c-0.628-0.071-1.079-0.638-1.008-1.266l0.113-1.025c0.068-0.629,0.638-1.092,1.26-1.016c0.629,0.067,1.083,0.632,1.016,1.26
	l-0.115,1.039C280.882,162.023,280.387,162.455,279.812,162.455z M11.479,158.476c-0.588,0-1.088-0.451-1.139-1.048l-0.084-1.045
	c-0.048-0.63,0.424-1.18,1.054-1.228c0.617-0.065,1.18,0.423,1.228,1.054l0.083,1.025c0.054,0.63-0.414,1.184-1.043,1.237
	C11.545,158.474,11.512,158.476,11.479,158.476z M280.441,155.252c-0.022,0-0.046-0.001-0.068-0.002
	c-0.631-0.038-1.112-0.579-1.075-1.21l0.059-1.031c0.033-0.631,0.544-1.117,1.204-1.081c0.631,0.034,1.115,0.573,1.081,1.204
	l-0.059,1.043C281.547,154.784,281.042,155.252,280.441,155.252z M11.065,151.216c-0.616,0-1.124-0.469-1.143-1.088l-0.029-0.893
	c-0.015-0.632,0.485-1.02,1.117-1.02c0.009,0,0.019,0,0.028,0c0.619,0,1.128,0.354,1.144,0.977l0.028,0.936
	c0.02,0.631-0.476,1.088-1.108,1.088C11.089,151.216,11.077,151.216,11.065,151.216z M280.686,148.216c-0.003,0-0.007,0-0.01,0
	c-0.632,0-1.14-0.617-1.135-1.249l0.004-1.076c0-0.044,0.003-0.111,0.008-0.153c-0.006-0.044-0.009-0.101-0.009-0.146l-0.006-1.127
	c-0.005-0.632,0.503-1.249,1.135-1.249c0.003,0,0.007,0,0.01,0c0.628,0,1.139,0.595,1.145,1.224l0.006,1.089
	c0,0.045-0.003,0.112-0.008,0.155c0.006,0.045,0.009,0.103,0.009,0.149l-0.004,1.148
	C281.824,147.61,281.313,148.216,280.686,148.216z M11.031,144.216c-0.008,0-0.017,0-0.025,0c-0.632,0-1.133-0.63-1.12-1.262
	l0.027-1.095c0.018-0.632,0.521-1.169,1.178-1.133c0.631,0.019,1.128,0.534,1.109,1.166l-0.026,1.117
	C12.162,143.632,11.652,144.216,11.031,144.216z M280.483,139.494c-0.604,0-1.108-0.473-1.142-1.083l-0.06-1.027
	c-0.04-0.631,0.439-1.174,1.07-1.213c0.647-0.037,1.174,0.441,1.213,1.071l0.062,1.046c0.034,0.631-0.45,1.17-1.081,1.204
	C280.524,139.493,280.504,139.494,280.483,139.494z M11.378,136.808c-0.028,0-0.058-0.001-0.086-0.003
	c-0.63-0.047-1.103-0.597-1.056-1.227l0.082-1.043c0.052-0.631,0.614-1.098,1.234-1.047c0.63,0.052,1.099,0.604,1.047,1.234
	l-0.081,1.027C12.474,136.35,11.972,136.808,11.378,136.808z M279.896,132.288c-0.577,0-1.073-0.435-1.137-1.022l-0.115-1.022
	c-0.073-0.627,0.377-1.196,1.004-1.269c0.631-0.069,1.196,0.377,1.27,1.004l0.117,1.042c0.067,0.628-0.387,1.192-1.015,1.26
	C279.979,132.285,279.938,132.288,279.896,132.288z M12.109,129.616c-0.048,0-0.097-0.003-0.146-0.009
	c-0.627-0.081-1.07-0.653-0.99-1.28l0.138-1.04c0.085-0.626,0.662-1.07,1.289-0.979c0.626,0.085,1.064,0.663,0.979,1.289
	l-0.135,1.02C13.169,129.194,12.677,129.616,12.109,129.616z M278.924,125.125c-0.552,0-1.037-0.399-1.129-0.961l-0.169-1.014
	c-0.106-0.623,0.312-1.214,0.934-1.322c0.63-0.105,1.216,0.311,1.322,0.934l0.173,1.035c0.101,0.624-0.322,1.211-0.946,1.313
	C279.046,125.12,278.984,125.125,278.924,125.125z M13.224,122.472c-0.069,0-0.138-0.006-0.208-0.019
	c-0.622-0.114-1.033-0.71-0.919-1.332l0.193-1.029c0.119-0.621,0.719-1.026,1.339-0.909c0.621,0.119,1.028,0.718,0.909,1.339
	l-0.19,1.012C14.247,122.086,13.765,122.472,13.224,122.472z M277.568,118.022c-0.526,0-0.999-0.365-1.117-0.899l-0.224-1.007
	c-0.139-0.616,0.248-1.229,0.864-1.368c0.621-0.139,1.229,0.248,1.368,0.864l0.228,1.021c0.135,0.617-0.256,1.228-0.873,1.363
	C277.732,118.013,277.649,118.022,277.568,118.022z M14.721,115.399c-0.089,0-0.179-0.01-0.269-0.032
	c-0.615-0.147-0.993-0.766-0.845-1.38l0.249-1.018c0.152-0.614,0.772-0.987,1.387-0.834c0.613,0.153,0.987,0.773,0.834,1.387
	l-0.245,1C15.706,115.046,15.237,115.399,14.721,115.399z M275.833,111.004c-0.502,0-0.963-0.333-1.103-0.841l-0.277-0.991
	c-0.173-0.608,0.18-1.241,0.787-1.414c0.607-0.172,1.24,0.179,1.414,0.788l0.283,1.009c0.167,0.609-0.19,1.239-0.8,1.407
	C276.036,110.991,275.934,111.004,275.833,111.004z M16.597,108.417c-0.108,0-0.219-0.016-0.328-0.048
	c-0.606-0.181-0.95-0.818-0.77-1.424l0.304-1.003c0.186-0.604,0.827-0.944,1.43-0.758c0.604,0.186,0.943,0.826,0.758,1.43
	l-0.298,0.985C17.544,108.096,17.089,108.417,16.597,108.417z M273.723,104.088c-0.479,0-0.924-0.302-1.085-0.78l-0.331-0.976
	c-0.205-0.598,0.112-1.249,0.711-1.454c0.601-0.206,1.248,0.113,1.453,0.71l0.337,0.99c0.201,0.599-0.121,1.248-0.72,1.449
	C273.967,104.069,273.844,104.088,273.723,104.088z M18.854,101.53c-0.128,0-0.258-0.021-0.386-0.067
	c-0.595-0.213-0.905-0.868-0.691-1.463l0.359-0.99c0.219-0.592,0.876-0.895,1.469-0.678c0.593,0.218,0.896,0.876,0.678,1.469
	l-0.352,0.97C19.763,101.239,19.323,101.53,18.854,101.53z M271.238,97.299c-0.455,0-0.885-0.273-1.063-0.722l-0.384-0.958
	c-0.237-0.585,0.045-1.252,0.631-1.49c0.584-0.236,1.254,0.045,1.49,0.631l0.39,0.97c0.233,0.587-0.054,1.252-0.641,1.486
	C271.522,97.273,271.379,97.299,271.238,97.299z M21.479,94.775c-0.148,0-0.298-0.029-0.443-0.09
	c-0.583-0.245-0.856-0.916-0.611-1.499l0.41-0.966c0.249-0.582,0.921-0.851,1.503-0.601c0.581,0.249,0.85,0.922,0.601,1.503
	l-0.404,0.952C22.351,94.512,21.926,94.775,21.479,94.775z M268.398,90.665c-0.434,0-0.849-0.248-1.041-0.668l-0.432-0.928
	c-0.269-0.572-0.022-1.253,0.55-1.522c0.571-0.268,1.253-0.024,1.522,0.549l0.439,0.948c0.264,0.575,0.011,1.254-0.563,1.517
	C268.72,90.631,268.558,90.665,268.398,90.665z M24.466,88.175c-0.167,0-0.337-0.037-0.498-0.115
	c-0.568-0.275-0.806-0.96-0.531-1.529l0.462-0.943c0.281-0.566,0.967-0.798,1.533-0.519c0.566,0.28,0.798,0.967,0.519,1.533
	l-0.454,0.927C25.299,87.937,24.891,88.175,24.466,88.175z M265.208,84.194c-0.411,0-0.808-0.222-1.013-0.61l-0.482-0.906
	c-0.299-0.557-0.09-1.25,0.467-1.55c0.556-0.298,1.25-0.089,1.549,0.467l0.49,0.921c0.295,0.559,0.081,1.251-0.478,1.546
	C265.571,84.152,265.388,84.194,265.208,84.194z M27.803,81.747c-0.188,0-0.377-0.046-0.553-0.143
	c-0.553-0.306-0.753-1.002-0.448-1.555l0.513-0.917c0.31-0.552,1.007-0.745,1.559-0.435c0.55,0.31,0.745,1.008,0.435,1.559
	l-0.503,0.9C28.597,81.533,28.206,81.747,27.803,81.747z M261.673,77.902c-0.39,0-0.77-0.199-0.983-0.559l-0.53-0.878
	c-0.328-0.54-0.157-1.244,0.382-1.572c0.542-0.327,1.244-0.158,1.573,0.382l0.54,0.896c0.324,0.542,0.146,1.245-0.396,1.569
	C262.074,77.85,261.872,77.902,261.673,77.902z M31.48,75.51c-0.208,0-0.417-0.057-0.606-0.175
	c-0.536-0.335-0.698-1.042-0.362-1.577l0.561-0.888c0.34-0.532,1.049-0.688,1.581-0.348c0.532,0.34,0.688,1.048,0.348,1.581
	l-0.55,0.87C32.234,75.319,31.861,75.51,31.48,75.51z M257.803,71.806c-0.369,0-0.73-0.178-0.951-0.507
	c-0.19-0.284-0.383-0.566-0.576-0.849c-0.356-0.521-0.224-1.233,0.298-1.59c0.521-0.358,1.234-0.223,1.591,0.297
	c0.197,0.288,0.394,0.577,0.588,0.868c0.353,0.525,0.212,1.235-0.313,1.587C258.243,71.743,258.021,71.806,257.803,71.806z
	 M35.485,69.481c-0.228,0-0.457-0.068-0.657-0.208c-0.517-0.364-0.641-1.078-0.278-1.594l0.607-0.855
	c0.368-0.514,1.083-0.631,1.597-0.265c0.514,0.368,0.632,1.083,0.265,1.597l-0.596,0.84C36.199,69.312,35.845,69.481,35.485,69.481z
	 M253.611,65.923c-0.347,0-0.689-0.157-0.915-0.456l-0.622-0.819c-0.384-0.502-0.288-1.22,0.214-1.604
	c0.501-0.385,1.22-0.288,1.604,0.213l0.632,0.832c0.38,0.505,0.279,1.222-0.226,1.603C254.093,65.848,253.851,65.923,253.611,65.923
	z M39.806,63.677c-0.248,0-0.497-0.08-0.707-0.245c-0.497-0.391-0.583-1.11-0.192-1.607l0.65-0.821
	c0.395-0.495,1.114-0.574,1.608-0.181c0.494,0.394,0.575,1.114,0.181,1.608l-0.641,0.809C40.48,63.527,40.145,63.677,39.806,63.677z
	 M249.112,60.27c-0.326,0-0.65-0.138-0.877-0.407l-0.665-0.786c-0.41-0.48-0.354-1.203,0.127-1.613
	c0.482-0.41,1.204-0.352,1.613,0.128l0.677,0.797c0.406,0.484,0.345,1.206-0.14,1.612C249.634,60.182,249.372,60.27,249.112,60.27z
	 M44.429,58.113c-0.268,0-0.537-0.093-0.754-0.284c-0.475-0.417-0.522-1.14-0.105-1.615l0.692-0.784
	c0.42-0.472,1.143-0.514,1.616-0.095c0.472,0.42,0.515,1.143,0.095,1.616l-0.684,0.773C45.063,57.981,44.747,58.113,44.429,58.113z
	 M244.313,54.863c-0.306,0-0.61-0.122-0.836-0.363l-0.706-0.749c-0.435-0.458-0.416-1.182,0.042-1.618
	c0.46-0.434,1.182-0.416,1.618,0.042l0.718,0.762c0.432,0.462,0.407,1.186-0.055,1.617
	C244.874,54.761,244.594,54.863,244.313,54.863z M49.341,52.805c-0.289,0-0.577-0.108-0.799-0.325
	c-0.452-0.441-0.461-1.166-0.02-1.618l0.734-0.746c0.444-0.449,1.168-0.453,1.618-0.008c0.449,0.444,0.453,1.169,0.008,1.618
	L50.16,52.46C49.936,52.69,49.638,52.805,49.341,52.805z M239.234,49.718c-0.286,0-0.571-0.106-0.794-0.32l-0.744-0.71
	c-0.459-0.435-0.479-1.159-0.044-1.618c0.438-0.459,1.16-0.478,1.618-0.043l0.758,0.723c0.455,0.438,0.469,1.163,0.03,1.618
	C239.834,49.601,239.534,49.718,239.234,49.718z M54.527,47.768c-0.309,0-0.616-0.124-0.842-0.369
	c-0.428-0.465-0.399-1.189,0.066-1.617l0.773-0.707c0.47-0.425,1.193-0.389,1.616,0.079c0.424,0.468,0.389,1.192-0.079,1.616
	l-0.759,0.694C55.082,47.668,54.804,47.768,54.527,47.768z M233.885,44.85c-0.264,0-0.529-0.091-0.745-0.277l-0.784-0.67
	c-0.481-0.41-0.54-1.132-0.131-1.613c0.409-0.482,1.13-0.541,1.613-0.131l0.794,0.68c0.479,0.412,0.533,1.135,0.121,1.614
	C234.526,44.715,234.207,44.85,233.885,44.85z M59.973,43.016c-0.33,0-0.656-0.142-0.883-0.416
	c-0.402-0.487-0.333-1.208,0.154-1.611l0.807-0.663c0.489-0.399,1.209-0.326,1.61,0.163c0.399,0.49,0.326,1.21-0.163,1.61
	l-0.797,0.654C60.488,42.931,60.229,43.016,59.973,43.016z M228.285,40.272c-0.244,0-0.49-0.078-0.698-0.239l-0.818-0.628
	c-0.503-0.383-0.6-1.102-0.217-1.604c0.385-0.503,1.102-0.598,1.604-0.216l0.83,0.637c0.5,0.386,0.593,1.105,0.206,1.605
	C228.967,40.119,228.628,40.272,228.285,40.272z M65.662,38.562c-0.351,0-0.696-0.161-0.921-0.464
	c-0.376-0.508-0.269-1.225,0.239-1.601l0.841-0.618c0.511-0.373,1.227-0.262,1.599,0.249c0.373,0.51,0.262,1.226-0.249,1.599
	l-0.83,0.61C66.137,38.489,65.898,38.562,65.662,38.562z M222.445,36c-0.225,0-0.452-0.066-0.651-0.204l-0.849-0.583
	c-0.522-0.355-0.658-1.067-0.303-1.59s1.068-0.659,1.59-0.302l0.866,0.594c0.519,0.36,0.648,1.073,0.288,1.592
	C223.164,35.828,222.808,36,222.445,36z M71.579,34.419c-0.371,0-0.735-0.181-0.956-0.514c-0.349-0.527-0.204-1.237,0.324-1.585
	l0.875-0.573c0.529-0.343,1.238-0.193,1.583,0.337c0.344,0.53,0.193,1.239-0.337,1.583l-0.859,0.562
	C72.015,34.358,71.796,34.419,71.579,34.419z M216.386,32.044c-0.204,0-0.411-0.055-0.598-0.169l-0.881-0.537
	c-0.542-0.327-0.716-1.03-0.389-1.571c0.326-0.541,1.029-0.715,1.57-0.388l0.896,0.546c0.538,0.331,0.707,1.035,0.377,1.574
	C217.146,31.85,216.771,32.044,216.386,32.044z M77.707,30.6c-0.393,0-0.775-0.202-0.988-0.565c-0.32-0.545-0.137-1.246,0.408-1.566
	l0.902-0.525c0.546-0.316,1.247-0.128,1.563,0.419c0.316,0.547,0.128,1.247-0.419,1.563l-0.888,0.516
	C78.103,30.549,77.904,30.6,77.707,30.6z M210.118,28.418c-0.185,0-0.372-0.045-0.545-0.139l-0.908-0.488
	c-0.559-0.297-0.77-0.99-0.474-1.547c0.298-0.559,0.991-0.769,1.548-0.473l0.926,0.498c0.556,0.302,0.762,0.996,0.46,1.552
	C210.917,28.201,210.524,28.418,210.118,28.418z M84.027,27.116c-0.415,0-0.814-0.226-1.018-0.619
	c-0.29-0.562-0.07-1.252,0.491-1.542l0.928-0.475c0.563-0.287,1.251-0.062,1.538,0.502c0.286,0.563,0.062,1.252-0.502,1.538
	l-0.914,0.468C84.384,27.075,84.204,27.116,84.027,27.116z M203.663,25.134c-0.164,0-0.331-0.036-0.49-0.111l-0.935-0.44
	c-0.572-0.267-0.82-0.947-0.554-1.521c0.267-0.572,0.945-0.822,1.521-0.554l0.95,0.447c0.57,0.271,0.813,0.954,0.542,1.525
	C204.502,24.893,204.091,25.134,203.663,25.134z M90.523,23.978c-0.436,0-0.853-0.25-1.043-0.674
	c-0.26-0.576-0.003-1.253,0.573-1.513l0.951-0.425c0.581-0.253,1.254,0.005,1.51,0.583s-0.005,1.254-0.583,1.51l-0.938,0.418
	C90.84,23.945,90.68,23.978,90.523,23.978z M197.037,22.201c-0.146,0-0.293-0.028-0.436-0.086l-0.956-0.388
	c-0.586-0.236-0.87-0.902-0.635-1.488c0.235-0.587,0.9-0.87,1.488-0.636l0.974,0.396c0.584,0.241,0.863,0.909,0.623,1.494
	C197.913,21.934,197.486,22.201,197.037,22.201z M97.175,21.194c-0.459,0-0.892-0.278-1.067-0.731
	c-0.229-0.589,0.064-1.252,0.654-1.48l0.978-0.375c0.588-0.223,1.251,0.072,1.476,0.664c0.224,0.591-0.073,1.251-0.664,1.476
	l-0.963,0.369C97.452,21.169,97.312,21.194,97.175,21.194z M190.262,19.63c-0.126,0-0.253-0.021-0.379-0.065
	c-0.323-0.113-0.649-0.226-0.975-0.336c-0.599-0.203-0.919-0.853-0.715-1.452c0.202-0.598,0.853-0.919,1.451-0.715
	c0.333,0.113,0.665,0.228,0.996,0.344c0.596,0.209,0.91,0.862,0.701,1.458C191.177,19.335,190.734,19.63,190.262,19.63z
	 M103.985,18.766c-0.482,0-0.93-0.307-1.088-0.79c-0.196-0.601,0.132-1.247,0.733-1.443l0.998-0.321
	c0.599-0.193,1.245,0.143,1.437,0.745c0.191,0.603-0.143,1.246-0.745,1.437l-0.979,0.315
	C104.222,18.748,104.102,18.766,103.985,18.766z M183.368,17.434c-0.105,0-0.213-0.015-0.319-0.045l-0.99-0.282
	c-0.607-0.171-0.962-0.803-0.791-1.412c0.172-0.61,0.802-0.964,1.412-0.792l1.006,0.287c0.607,0.176,0.957,0.811,0.78,1.417
	C184.321,17.108,183.864,17.434,183.368,17.434z M110.916,16.71c-0.506,0-0.968-0.337-1.105-0.849
	c-0.163-0.611,0.199-1.238,0.81-1.401l1.012-0.266c0.614-0.163,1.236,0.208,1.395,0.82c0.159,0.612-0.208,1.236-0.82,1.395
	l-0.996,0.262C111.113,16.698,111.014,16.71,110.916,16.71z M176.372,15.614c-0.086,0-0.173-0.01-0.26-0.03l-1.004-0.229
	c-0.617-0.138-1.005-0.75-0.866-1.367c0.138-0.617,0.753-1.003,1.366-0.867l1.021,0.232c0.615,0.143,0.999,0.758,0.855,1.373
	C177.363,15.256,176.893,15.614,176.372,15.614z M117.948,15.032c-0.53,0-1.005-0.37-1.119-0.909
	c-0.13-0.618,0.265-1.225,0.884-1.355l1.026-0.212c0.616-0.126,1.223,0.274,1.349,0.895c0.125,0.619-0.275,1.223-0.895,1.349
	l-1.008,0.208C118.105,15.024,118.026,15.032,117.948,15.032z M169.286,14.174c-0.065,0-0.131-0.006-0.198-0.018l-1.015-0.174
	c-0.623-0.104-1.044-0.694-0.94-1.317c0.104-0.623,0.695-1.044,1.317-0.94l1.032,0.177c0.622,0.108,1.039,0.702,0.93,1.324
	C170.315,13.782,169.832,14.174,169.286,14.174z M125.06,13.735c-0.555,0-1.042-0.405-1.129-0.97
	c-0.096-0.625,0.332-1.209,0.957-1.305l1.035-0.156c0.621-0.097,1.206,0.341,1.298,0.966c0.092,0.625-0.341,1.207-0.966,1.298
	l-1.019,0.153C125.176,13.73,125.118,13.735,125.06,13.735z M162.134,13.117c-0.045,0-0.092-0.003-0.138-0.008l-1.022-0.119
	c-0.628-0.07-1.08-0.637-1.009-1.265c0.07-0.628,0.618-1.08,1.265-1.01l1.04,0.121c0.628,0.076,1.075,0.646,0.999,1.273
	C163.198,12.69,162.705,13.117,162.134,13.117z M132.232,12.822c-0.58,0-1.078-0.44-1.137-1.03c-0.063-0.629,0.395-1.19,1.024-1.253
	l1.043-0.101c0.63-0.047,1.187,0.405,1.245,1.035s-0.405,1.187-1.035,1.245l-1.024,0.099
	C132.309,12.82,132.271,12.822,132.232,12.822z M154.937,12.445c-0.025,0-0.051-0.001-0.077-0.003l-1.027-0.064
	c-0.631-0.037-1.112-0.579-1.075-1.21c0.037-0.63,0.587-1.12,1.21-1.074l1.045,0.065c0.631,0.042,1.107,0.587,1.065,1.218
	C156.037,11.981,155.534,12.445,154.937,12.445z M139.443,12.216c-0.607,0-1.113-0.439-1.142-1.053
	c-0.029-0.632,0.458-1.148,1.09-1.178l1.046-0.035c0.609-0.013,1.164,0.471,1.188,1.103c0.025,0.632-0.467,1.129-1.099,1.154
	l-1.029,0.009C139.479,12.216,139.461,12.216,139.443,12.216z M147.712,12.216c-0.005,0-0.011,0-0.017,0l-1.028-0.041
	c-0.632-0.003-1.142-0.534-1.138-1.166c0.003-0.632,0.528-1.194,1.15-1.146l1.049,0.007c0.632,0.009,1.137,0.557,1.128,1.188
	C148.848,11.687,148.337,12.216,147.712,12.216z"></path></g>
<g id="change1_4"><path fill="#EF6C43" d="M145.844,291.688C65.425,291.688,0,226.263,0,145.844S65.425,0,145.844,0
	c80.419,0,145.845,65.425,145.845,145.844S226.263,291.688,145.844,291.688z M145.844,3C67.08,3,3,67.08,3,145.844
	s64.08,142.844,142.844,142.844c78.765,0,142.845-64.079,142.845-142.844S224.608,3,145.844,3z"></path></g>
</svg>