<?xml version="1.0" encoding="utf-8"?>
<!-- Generator: Adobe Illustrator 15.0.0, SVG Export Plug-In . SVG Version: 6.00 Build 0)  -->
<!DOCTYPE svg PUBLIC "-//W3C//DTD SVG 1.1//EN" "http://www.w3.org/Graphics/SVG/1.1/DTD/svg11.dtd">
<svg version="1.1" id="Layer_1" xmlns="http://www.w3.org/2000/svg" xmlns:xlink="http://www.w3.org/1999/xlink" x="0px" y="0px"
	 width="398.639px" height="398.629px" viewBox="0 0 398.639 398.629" enable-background="new 0 0 398.639 398.629"
	 xml:space="preserve">
<g id="Layer_X">
	<g id="change1">
		<path fill="#EA833D" d="M199.333,398.629C89.419,398.629,0,309.225,0,199.333C0,89.42,89.419,0,199.333,0
			c109.9,0,199.306,89.42,199.306,199.333C398.639,309.225,309.234,398.629,199.333,398.629z M199.333,19.737
			c-99.03,0-179.596,80.566-179.596,179.595c0,99.016,80.566,179.566,179.596,179.566c99.018,0,179.575-80.551,179.575-179.566
			C378.909,100.303,298.351,19.737,199.333,19.737z"/>
		<path fill="#EA833D" d="M199.327,344.665c-80.15,0-145.361-65.192-145.361-145.334c0-80.154,65.211-145.365,145.361-145.365
			c80.148,0,145.347,65.211,145.347,145.365C344.673,279.473,279.476,344.665,199.327,344.665z M199.327,73.703
			c-69.27,0-125.623,56.357-125.623,125.627c0,69.258,56.354,125.604,125.623,125.604c69.265,0,125.616-56.346,125.616-125.604
			C324.943,130.06,268.591,73.703,199.327,73.703z"/>
		<path fill="#EA833D" d="M199.327,292.241c-51.246,0-92.938-41.681-92.938-92.915c0-51.246,41.692-92.937,92.938-92.937
			c51.238,0,92.923,41.691,92.923,92.937C292.25,250.562,250.565,292.241,199.327,292.241z M199.327,126.127
			c-40.362,0-73.2,32.836-73.2,73.2c0,40.351,32.838,73.183,73.2,73.183c40.354,0,73.191-32.832,73.191-73.183
			C272.519,158.963,239.681,126.127,199.327,126.127z"/>
		<path fill="#EA833D" d="M222.407,197.328c-1.639,30.387-45.527,30.395-47.165,0C173.603,166.902,220.774,167.074,222.407,197.328
			c0.639,11.867,19.146,11.928,18.502,0c-1.282-23.797-18.297-40.803-42.093-42.086c-23.746-1.28-40.9,20.219-42.077,42.086
			c-1.277,23.738,20.213,40.898,42.077,42.079c23.735,1.276,40.914-20.214,42.093-42.079
			C241.554,185.398,223.045,185.462,222.407,197.328z"/>
	</g>
</g>
</svg>
